# xmcd
#
# Track frame offsets: 
#        150
#        16940
#        35332
#        54085
#        75227
#        96035
#        116632
#        139212
#        159967
#        180687
#        201887
#        224455
#        245775
#        267312
#        289182
#        309097
#
# Disc length: 4345 seconds
#
# Revision: 10
# Processed by: cddbd v1.5.2PL0 Copyright (c) Steve Scherf et al.
# Submitted via: ExactAudioCopy v0.99pb4
#
DISCID=d510f710
DTITLE=U2 - The Best of 1990 - 2000
DYEAR=2002
DGENRE=
TTITLE0=Even Better Than the Real Thing
TTITLE1=Mysterious Ways
TTITLE2=Beautiful Day
TTITLE3=Electrical Storm (William Orbit Mix)
TTITLE4=One
TTITLE5=Miss Sarajevo
TTITLE6=Stay (Faraway So Close)
TTITLE7=Stuck in a Monment You Can't Get Out Of
TTITLE8=Gone (New Mix)
TTITLE9=Until The End Of The World
TTITLE10=The Hands That Built America (Gangs Of New York)
TTITLE11=Discothque (New Mix)
TTITLE12=Hold Me, Thrill Me, Kiss Me, Kill Me
TTITLE13=Staring At The Sun (New Mix)
TTITLE14=Numb (New Mix)
TTITLE15=The First Time
EXTD=\n\nMPC
EXTT0=
EXTT1=
EXTT2=
EXTT3=
EXTT4=
EXTT5=
EXTT6=
EXTT7=
EXTT8=
EXTT9=
EXTT10=
EXTT11=
EXTT12=
EXTT13=
EXTT14=
EXTT15=
PLAYORDER=
